<svg xmlns="http://www.w3.org/2000/svg" xml:space="preserve" width="128" height="128" id="bookmark">
  <path fill="#3B97D3" d="M90.8 15C70.7 15 64 31 64 31s-6.7-16-26.8-16S6 31 6 49.3c0 34.3 58 64 58 64s58-29.7 58-64C122.1 31 110.9 15 90.8 15zm-.2 76c-11.1 8.9-22.2 15.4-26.5 17.7-4.3-2.4-15.5-8.8-26.6-17.8C24.9 80.8 10 65.4 10 49.3c0-8.3 2.5-15.9 7.1-21.4C22 22.1 29 19 37.3 19c17.2 0 23 13.4 23.1 13.5l3.7 8.8 3.7-8.8c.2-.5 6-13.5 23-13.5 8.3 0 15.2 3.1 20.1 8.9 4.6 5.5 7.1 13.1 7.1 21.4.1 16.1-14.9 31.6-27.4 41.7z"></path>
</svg>
